<?xml version="1.0" encoding="utf-8"?>
<svg version="1.1" xmlns:xlink="http://www.w3.org/1999/xlink" width="16px" height="11px" xmlns="http://www.w3.org/2000/svg">
  <defs>
    <pattern id="BGPattern" patternUnits="userSpaceOnUse" alignment="0 0" imageRepeat="None" />
    <mask fill="white" id="Clip32">
      <path d="M 6.8359000000000005 10.993400000000001  L 3.4182000000000006 0.13319999999999865  C 3.2683999999999997 0.18870000000000076  3.112 0.2286999999999999  2.9488000000000003 0.2498000000000005  C 2.2156000000000002 0.34250000000000114  1.5088500000000007 0.583400000000001  0.8715799999999998 0.9576999999999991  L 2.9488000000000003 4.7361  L 1.2399799999999992 6.002199999999998  L 6.0059000000000005 10.993400000000001  L 6.8359000000000005 10.993400000000001  Z M 12.5684 0.13319999999999865  L 12.569500000000001 0.13319999999999865  C 12.7193 0.18870000000000076  12.875699999999998 0.2286999999999999  13.038900000000002 0.2498000000000005  C 13.7717 0.3426000000000009  14.478100000000001 0.5835000000000008  15.114999999999998 0.9576999999999991  L 13.038900000000002 4.7361  L 14.747699999999998 6.002199999999998  L 9.9818 10.993400000000001  L 9.1507 10.993400000000001  L 12.5684 0.13319999999999865  Z " fill-rule="evenodd" />
    </mask>
  </defs>
  <g transform="matrix(1 0 0 1 -421 -20 )">
    <path d="M 6.8359000000000005 10.993400000000001  L 3.4182000000000006 0.13319999999999865  C 3.2683999999999997 0.18870000000000076  3.112 0.2286999999999999  2.9488000000000003 0.2498000000000005  C 2.2156000000000002 0.34250000000000114  1.5088500000000007 0.583400000000001  0.8715799999999998 0.9576999999999991  L 2.9488000000000003 4.7361  L 1.2399799999999992 6.002199999999998  L 6.0059000000000005 10.993400000000001  L 6.8359000000000005 10.993400000000001  Z M 12.5684 0.13319999999999865  L 12.569500000000001 0.13319999999999865  C 12.7193 0.18870000000000076  12.875699999999998 0.2286999999999999  13.038900000000002 0.2498000000000005  C 13.7717 0.3426000000000009  14.478100000000001 0.5835000000000008  15.114999999999998 0.9576999999999991  L 13.038900000000002 4.7361  L 14.747699999999998 6.002199999999998  L 9.9818 10.993400000000001  L 9.1507 10.993400000000001  L 12.5684 0.13319999999999865  Z " fill-rule="nonzero" fill="rgba(51, 58, 63, 1)" stroke="none" transform="matrix(1 0 0 1 421 20 )" class="fill" />
    <path d="M 6.8359000000000005 10.993400000000001  L 3.4182000000000006 0.13319999999999865  C 3.2683999999999997 0.18870000000000076  3.112 0.2286999999999999  2.9488000000000003 0.2498000000000005  C 2.2156000000000002 0.34250000000000114  1.5088500000000007 0.583400000000001  0.8715799999999998 0.9576999999999991  L 2.9488000000000003 4.7361  L 1.2399799999999992 6.002199999999998  L 6.0059000000000005 10.993400000000001  L 6.8359000000000005 10.993400000000001  Z " stroke-width="0" stroke-dasharray="0" stroke="rgba(255, 255, 255, 0)" fill="none" transform="matrix(1 0 0 1 421 20 )" class="stroke" mask="url(#Clip32)" />
    <path d="M 12.5684 0.13319999999999865  L 12.569500000000001 0.13319999999999865  C 12.7193 0.18870000000000076  12.875699999999998 0.2286999999999999  13.038900000000002 0.2498000000000005  C 13.7717 0.3426000000000009  14.478100000000001 0.5835000000000008  15.114999999999998 0.9576999999999991  L 13.038900000000002 4.7361  L 14.747699999999998 6.002199999999998  L 9.9818 10.993400000000001  L 9.1507 10.993400000000001  L 12.5684 0.13319999999999865  Z " stroke-width="0" stroke-dasharray="0" stroke="rgba(255, 255, 255, 0)" fill="none" transform="matrix(1 0 0 1 421 20 )" class="stroke" mask="url(#Clip32)" />
  </g>
</svg>