<?xml version="1.0" encoding="utf-8"?>
<svg version="1.1" xmlns:xlink="http://www.w3.org/1999/xlink" width="14px" height="14px" xmlns="http://www.w3.org/2000/svg">
  <defs>
    <pattern id="BGPattern" patternUnits="userSpaceOnUse" alignment="0 0" imageRepeat="None" />
    <mask fill="white" id="Clip52">
      <path d="M 11.4893125 10.366000000000001  C 11.4893125 9.633625000000002  10.892500000000002 9.0379375  10.158999999999999 9.0379375  C 9.425500000000001 9.0379375  8.82925 9.633625000000002  8.82925 10.366000000000001  C 8.82925 11.098375  9.426062499999999 11.695187500000001  10.158999999999999 11.695187500000001  C 10.891937500000001 11.695187500000001  11.4893125 11.098375  11.4893125 10.366000000000001  Z M 10.803625 10.3665625  C 10.803625 10.722579056859676  10.515016556859676 11.0111875  10.158999999999999 11.011187499999998  C 9.803111987422703 11.010877357764507  9.51468514223549 10.722450512577296  9.514374999999998 10.366562499999997  C 9.528813648817279 10.021013895264074  9.813149869430974 9.748310469761053  10.158999999999999 9.748310469761053  C 10.504850130569025 9.748310469761053  10.78918635118272 10.021013895264076  10.803625 10.3665625  Z M 13.75 10.371625000000009  C 13.75 10.077437500000007  13.6830625 9.712375000000007  13.675749999999999 9.673  C 13.6256875 9.409187499999998  13.456375 9.238187499999999  13.2398125 9.238187499999999  L 13.2094375 9.238187499999999  C 12.794213133922478 9.238187963874864  12.457433164224074 8.901911402202918  12.4568125 8.4866875  C 12.4568125 8.378124999999999  12.5040625 8.2448125  12.5220625 8.2020625  C 12.625562500000001 7.971437500000001  12.54625 7.686812499999999  12.3173125 7.52875  L 11.437 7.041625000000002  C 11.216105248167771 6.952354075001576  10.963292825369127 7.00273976765725  10.7935 7.169875000000002  C 10.684375000000001 7.283500000000003  10.393 7.516937500000003  10.192749999999998 7.516937500000003  C 9.989687499999999 7.516937500000003  9.696624999999997 7.278437500000003  9.587499999999997 7.164250000000003  C 9.419392045125056 6.995220110370598  9.166759008345787 6.942569792723077  8.945124999999999 7.030375000000003  L 8.928249999999998 7.037125000000003  L 8.0321875 7.529312500000003  L 8.011375 7.542250000000004  C 7.801900813621665 7.690284397406692  7.724312028660458 7.964540827632104  7.825187499999998 8.200375000000005  C 7.832499999999999 8.216687500000004  7.892125 8.362937500000005  7.892125 8.487250000000005  C 7.890884977522781 8.902655680465141  7.553782531244947 9.238751850783936  7.138375000000001 9.238750000000005  L 7.1029374999999995 9.238750000000005  C 6.890874999999999 9.238750000000005  6.722125 9.410312500000003  6.672062499999999 9.673562500000005  C 6.664187500000001 9.712937500000004  6.5978125 10.078000000000005  6.5978125 10.372187500000004  C 6.5978125 10.665250000000006  6.664187500000001 11.030312500000004  6.672062499999999 11.070812500000006  C 6.722125 11.333500000000004  6.890874999999999 11.503937500000005  7.1080000000000005 11.503937500000005  L 7.137812500000001 11.503937500000005  C 7.5529375000000005 11.503937500000005  7.891562500000001 11.841437500000005  7.891562500000001 12.256562500000005  C 7.891562500000001 12.364000000000004  7.843749999999999 12.498437500000005  7.825749999999998 12.541187500000005  C 7.722249999999999 12.771812500000006  7.801562500000001 13.055312500000007  8.029374999999998 13.213375000000006  L 8.893374999999999 13.694312500000006  C 9.116405709212781 13.786830583495433  9.373342752093572 13.73325552676964  9.5408125 13.559312500000006  C 9.647124999999999 13.444000000000008  9.94975 13.191437500000006  10.155625 13.191437500000006  C 10.364875 13.191437500000006  10.663 13.444000000000008  10.7755 13.566062500000006  C 10.879562499999999 13.680812500000007  11.0404375 13.750000000000007  11.204125000000001 13.750000000000007  C 11.287103051308147 13.749652181663196  11.368961193875425 13.730820965767435  11.44375 13.694875000000009  L 12.3173125 13.213937500000009  L 12.338125 13.19987500000001  C 12.547403068252331 13.052200983380908  12.624809269837066 12.778229942620397  12.523749999999998 12.542875000000011  C 12.48560383420162 12.451677878644194  12.463162139136731 12.354684111838324  12.457374999999999 12.256000000000009  C 12.457994548257386 11.840593586085728  12.794593586085721 11.503994548257397  13.209999999999999 11.503375000000009  L 13.2454375 11.503375000000009  C 13.457499999999998 11.503375000000009  13.6268125 11.332937500000007  13.6763125 11.070250000000009  C 13.675749999999999 11.066875000000008  13.75 10.680437500000007  13.75 10.371625000000009  Z M 13.0643125 10.3710625  C 13.0643125 10.521250000000002  13.039562499999999 10.7125  13.020999999999999 10.8311875  C 12.305614825831523 10.924727560718086  11.770687485886452 11.534525468945299  11.771124999999998 12.256  C 11.771124999999998 12.4230625  11.811624999999998 12.58225  11.847624999999997 12.6908125  L 11.217062499999997 13.037875000000001  C 11.160812499999997 12.981625000000001  11.070249999999998 12.900625000000002  10.958312499999998 12.816812500000001  C 10.679312499999998 12.610375  10.409312499999999 12.504625  10.155624999999997 12.504625  C 9.904749999999996 12.504625  9.636999999999997 12.608125000000001  9.360249999999997 12.8100625  C 9.269736052406559 12.876949924909338  9.183678592623842 12.949666599441896  9.102624999999998 13.027750000000001  L 8.500187499999997 12.691375  C 8.536187499999997 12.582812500000001  8.577249999999998 12.421937500000002  8.577249999999998 12.255437500000003  C 8.577687514113546 11.5339629689453  8.042760174168471 10.924165060718085  7.327374999999996 10.830625000000001  C 7.30248147999061 10.678792474019538  7.2880101567139395 10.525434035139472  7.284062499999996 10.371625000000002  C 7.284062499999996 10.219187500000002  7.309374999999996 10.029062500000002  7.327374999999996 9.9115  C 8.042385969970267 9.817259426750931  8.576944228323299 9.207882258250379  8.577249999999998 8.4866875  C 8.577249999999998 8.319625  8.536749999999998 8.1604375  8.500749999999998 8.051875  L 9.151562499999997 7.6946875  C 9.2078125 7.748687499999999  9.298374999999997 7.8285625  9.409187499999996 7.907875000000001  C 9.682562499999998 8.103625  9.945812499999997 8.2009375  10.192749999999997 8.2009375  C 10.436312499999996 8.2009375  10.696749999999998 8.1041875  10.968437499999999 7.9129375  C 11.0786875 7.835874999999999  11.168124999999998 7.758250000000002  11.224937499999998 7.705375  L 11.848187499999998 8.0513125  C 11.799852831759944 8.191310878778294  11.773847325938727 8.338042674397279  11.771124999999998 8.486125  C 11.771124999999998 9.2123125  12.311687499999996 9.817562500000001  13.020999999999999 9.910937500000001  C 13.039562499999999 10.029625  13.0643125 10.220875  13.0643125 10.3710625  Z M 6.651812499999998 12.776874999999997  L 1.13875 12.776875  L 1.13875 12.024249999999999  C 1.13875 9.4643125  3.11425 7.356062499999999  5.62975 7.1186875  L 5.6286249999999995 7.1175625  L 5.635375 7.1175625  C 5.789499999999999 7.1035  5.945875 7.095062500000001  6.103937500000001 7.095062500000001  L 6.1748125 7.09675  C 6.7311250000000005 7.054  7.572625 6.9229375000000015  8.013062499999998 6.530875  L 8.2290625 6.3626875  C 9.07 5.705687500000001  9.553187499999998 4.7258125  9.553187499999998 3.67225  C 9.552625 1.7850625000000002  8.0051875 0.25  6.102812499999999 0.25  C 4.201 0.25  2.6535624999999996 1.7850625000000002  2.6535624999999996 3.67225  C 2.6535624999999996 4.725812499999999  3.135624999999999 5.7056875  3.977687499999999 6.3626875  L 4.193124999999998 6.530875  L 3.939437499999998 6.631  C 1.6978749999999998 7.520312500000001  0.25 9.636999999999999  0.25 12.024249999999999  L 0.25 13.217312499999998  C 0.25 13.459187499999999  0.44912499999999994 13.656624999999998  0.694375 13.656624999999998  L 7.1889999999999965 13.656624999999996  C 6.976802453695447 13.384939045351846  6.796555661162497 13.089749533810972  6.651812499999998 12.776874999999997  Z M 6.103375 6.214749999999999  C 4.6915 6.214749999999999  3.5428749999999996 5.073999999999999  3.5428749999999996 3.67225  C 3.5428749999999996 2.2710625  4.6915 1.1303124999999996  6.103375 1.1303124999999996  C 7.515812499999999 1.1303124999999996  8.6644375 2.2699374999999993  8.6644375 3.67225  C 8.6644375 5.0745625  7.515812500000001 6.214749999999999  6.103375 6.214749999999999  Z " fill-rule="evenodd" />
    </mask>
  </defs>
  <g transform="matrix(1 0 0 1 -44 -357 )">
    <path d="M 11.4893125 10.366000000000001  C 11.4893125 9.633625000000002  10.892500000000002 9.0379375  10.158999999999999 9.0379375  C 9.425500000000001 9.0379375  8.82925 9.633625000000002  8.82925 10.366000000000001  C 8.82925 11.098375  9.426062499999999 11.695187500000001  10.158999999999999 11.695187500000001  C 10.891937500000001 11.695187500000001  11.4893125 11.098375  11.4893125 10.366000000000001  Z M 10.803625 10.3665625  C 10.803625 10.722579056859676  10.515016556859676 11.0111875  10.158999999999999 11.011187499999998  C 9.803111987422703 11.010877357764507  9.51468514223549 10.722450512577296  9.514374999999998 10.366562499999997  C 9.528813648817279 10.021013895264074  9.813149869430974 9.748310469761053  10.158999999999999 9.748310469761053  C 10.504850130569025 9.748310469761053  10.78918635118272 10.021013895264076  10.803625 10.3665625  Z M 13.75 10.371625000000009  C 13.75 10.077437500000007  13.6830625 9.712375000000007  13.675749999999999 9.673  C 13.6256875 9.409187499999998  13.456375 9.238187499999999  13.2398125 9.238187499999999  L 13.2094375 9.238187499999999  C 12.794213133922478 9.238187963874864  12.457433164224074 8.901911402202918  12.4568125 8.4866875  C 12.4568125 8.378124999999999  12.5040625 8.2448125  12.5220625 8.2020625  C 12.625562500000001 7.971437500000001  12.54625 7.686812499999999  12.3173125 7.52875  L 11.437 7.041625000000002  C 11.216105248167771 6.952354075001576  10.963292825369127 7.00273976765725  10.7935 7.169875000000002  C 10.684375000000001 7.283500000000003  10.393 7.516937500000003  10.192749999999998 7.516937500000003  C 9.989687499999999 7.516937500000003  9.696624999999997 7.278437500000003  9.587499999999997 7.164250000000003  C 9.419392045125056 6.995220110370598  9.166759008345787 6.942569792723077  8.945124999999999 7.030375000000003  L 8.928249999999998 7.037125000000003  L 8.0321875 7.529312500000003  L 8.011375 7.542250000000004  C 7.801900813621665 7.690284397406692  7.724312028660458 7.964540827632104  7.825187499999998 8.200375000000005  C 7.832499999999999 8.216687500000004  7.892125 8.362937500000005  7.892125 8.487250000000005  C 7.890884977522781 8.902655680465141  7.553782531244947 9.238751850783936  7.138375000000001 9.238750000000005  L 7.1029374999999995 9.238750000000005  C 6.890874999999999 9.238750000000005  6.722125 9.410312500000003  6.672062499999999 9.673562500000005  C 6.664187500000001 9.712937500000004  6.5978125 10.078000000000005  6.5978125 10.372187500000004  C 6.5978125 10.665250000000006  6.664187500000001 11.030312500000004  6.672062499999999 11.070812500000006  C 6.722125 11.333500000000004  6.890874999999999 11.503937500000005  7.1080000000000005 11.503937500000005  L 7.137812500000001 11.503937500000005  C 7.5529375000000005 11.503937500000005  7.891562500000001 11.841437500000005  7.891562500000001 12.256562500000005  C 7.891562500000001 12.364000000000004  7.843749999999999 12.498437500000005  7.825749999999998 12.541187500000005  C 7.722249999999999 12.771812500000006  7.801562500000001 13.055312500000007  8.029374999999998 13.213375000000006  L 8.893374999999999 13.694312500000006  C 9.116405709212781 13.786830583495433  9.373342752093572 13.73325552676964  9.5408125 13.559312500000006  C 9.647124999999999 13.444000000000008  9.94975 13.191437500000006  10.155625 13.191437500000006  C 10.364875 13.191437500000006  10.663 13.444000000000008  10.7755 13.566062500000006  C 10.879562499999999 13.680812500000007  11.0404375 13.750000000000007  11.204125000000001 13.750000000000007  C 11.287103051308147 13.749652181663196  11.368961193875425 13.730820965767435  11.44375 13.694875000000009  L 12.3173125 13.213937500000009  L 12.338125 13.19987500000001  C 12.547403068252331 13.052200983380908  12.624809269837066 12.778229942620397  12.523749999999998 12.542875000000011  C 12.48560383420162 12.451677878644194  12.463162139136731 12.354684111838324  12.457374999999999 12.256000000000009  C 12.457994548257386 11.840593586085728  12.794593586085721 11.503994548257397  13.209999999999999 11.503375000000009  L 13.2454375 11.503375000000009  C 13.457499999999998 11.503375000000009  13.6268125 11.332937500000007  13.6763125 11.070250000000009  C 13.675749999999999 11.066875000000008  13.75 10.680437500000007  13.75 10.371625000000009  Z M 13.0643125 10.3710625  C 13.0643125 10.521250000000002  13.039562499999999 10.7125  13.020999999999999 10.8311875  C 12.305614825831523 10.924727560718086  11.770687485886452 11.534525468945299  11.771124999999998 12.256  C 11.771124999999998 12.4230625  11.811624999999998 12.58225  11.847624999999997 12.6908125  L 11.217062499999997 13.037875000000001  C 11.160812499999997 12.981625000000001  11.070249999999998 12.900625000000002  10.958312499999998 12.816812500000001  C 10.679312499999998 12.610375  10.409312499999999 12.504625  10.155624999999997 12.504625  C 9.904749999999996 12.504625  9.636999999999997 12.608125000000001  9.360249999999997 12.8100625  C 9.269736052406559 12.876949924909338  9.183678592623842 12.949666599441896  9.102624999999998 13.027750000000001  L 8.500187499999997 12.691375  C 8.536187499999997 12.582812500000001  8.577249999999998 12.421937500000002  8.577249999999998 12.255437500000003  C 8.577687514113546 11.5339629689453  8.042760174168471 10.924165060718085  7.327374999999996 10.830625000000001  C 7.30248147999061 10.678792474019538  7.2880101567139395 10.525434035139472  7.284062499999996 10.371625000000002  C 7.284062499999996 10.219187500000002  7.309374999999996 10.029062500000002  7.327374999999996 9.9115  C 8.042385969970267 9.817259426750931  8.576944228323299 9.207882258250379  8.577249999999998 8.4866875  C 8.577249999999998 8.319625  8.536749999999998 8.1604375  8.500749999999998 8.051875  L 9.151562499999997 7.6946875  C 9.2078125 7.748687499999999  9.298374999999997 7.8285625  9.409187499999996 7.907875000000001  C 9.682562499999998 8.103625  9.945812499999997 8.2009375  10.192749999999997 8.2009375  C 10.436312499999996 8.2009375  10.696749999999998 8.1041875  10.968437499999999 7.9129375  C 11.0786875 7.835874999999999  11.168124999999998 7.758250000000002  11.224937499999998 7.705375  L 11.848187499999998 8.0513125  C 11.799852831759944 8.191310878778294  11.773847325938727 8.338042674397279  11.771124999999998 8.486125  C 11.771124999999998 9.2123125  12.311687499999996 9.817562500000001  13.020999999999999 9.910937500000001  C 13.039562499999999 10.029625  13.0643125 10.220875  13.0643125 10.3710625  Z M 6.651812499999998 12.776874999999997  L 1.13875 12.776875  L 1.13875 12.024249999999999  C 1.13875 9.4643125  3.11425 7.356062499999999  5.62975 7.1186875  L 5.6286249999999995 7.1175625  L 5.635375 7.1175625  C 5.789499999999999 7.1035  5.945875 7.095062500000001  6.103937500000001 7.095062500000001  L 6.1748125 7.09675  C 6.7311250000000005 7.054  7.572625 6.9229375000000015  8.013062499999998 6.530875  L 8.2290625 6.3626875  C 9.07 5.705687500000001  9.553187499999998 4.7258125  9.553187499999998 3.67225  C 9.552625 1.7850625000000002  8.0051875 0.25  6.102812499999999 0.25  C 4.201 0.25  2.6535624999999996 1.7850625000000002  2.6535624999999996 3.67225  C 2.6535624999999996 4.725812499999999  3.135624999999999 5.7056875  3.977687499999999 6.3626875  L 4.193124999999998 6.530875  L 3.939437499999998 6.631  C 1.6978749999999998 7.520312500000001  0.25 9.636999999999999  0.25 12.024249999999999  L 0.25 13.217312499999998  C 0.25 13.459187499999999  0.44912499999999994 13.656624999999998  0.694375 13.656624999999998  L 7.1889999999999965 13.656624999999996  C 6.976802453695447 13.384939045351846  6.796555661162497 13.089749533810972  6.651812499999998 12.776874999999997  Z M 6.103375 6.214749999999999  C 4.6915 6.214749999999999  3.5428749999999996 5.073999999999999  3.5428749999999996 3.67225  C 3.5428749999999996 2.2710625  4.6915 1.1303124999999996  6.103375 1.1303124999999996  C 7.515812499999999 1.1303124999999996  8.6644375 2.2699374999999993  8.6644375 3.67225  C 8.6644375 5.0745625  7.515812500000001 6.214749999999999  6.103375 6.214749999999999  Z " fill-rule="nonzero" fill="rgba(51, 51, 51, 1)" stroke="none" transform="matrix(1 0 0 1 44 357 )" class="fill" />
    <path d="M 11.4893125 10.366000000000001  C 11.4893125 9.633625000000002  10.892500000000002 9.0379375  10.158999999999999 9.0379375  C 9.425500000000001 9.0379375  8.82925 9.633625000000002  8.82925 10.366000000000001  C 8.82925 11.098375  9.426062499999999 11.695187500000001  10.158999999999999 11.695187500000001  C 10.891937500000001 11.695187500000001  11.4893125 11.098375  11.4893125 10.366000000000001  Z " stroke-width="0" stroke-dasharray="0" stroke="rgba(255, 255, 255, 0)" fill="none" transform="matrix(1 0 0 1 44 357 )" class="stroke" mask="url(#Clip52)" />
    <path d="M 10.803625 10.3665625  C 10.803625 10.722579056859676  10.515016556859676 11.0111875  10.158999999999999 11.011187499999998  C 9.803111987422703 11.010877357764507  9.51468514223549 10.722450512577296  9.514374999999998 10.366562499999997  C 9.528813648817279 10.021013895264074  9.813149869430974 9.748310469761053  10.158999999999999 9.748310469761053  C 10.504850130569025 9.748310469761053  10.78918635118272 10.021013895264076  10.803625 10.3665625  Z " stroke-width="0" stroke-dasharray="0" stroke="rgba(255, 255, 255, 0)" fill="none" transform="matrix(1 0 0 1 44 357 )" class="stroke" mask="url(#Clip52)" />
    <path d="M 13.75 10.371625000000009  C 13.75 10.077437500000007  13.6830625 9.712375000000007  13.675749999999999 9.673  C 13.6256875 9.409187499999998  13.456375 9.238187499999999  13.2398125 9.238187499999999  L 13.2094375 9.238187499999999  C 12.794213133922478 9.238187963874864  12.457433164224074 8.901911402202918  12.4568125 8.4866875  C 12.4568125 8.378124999999999  12.5040625 8.2448125  12.5220625 8.2020625  C 12.625562500000001 7.971437500000001  12.54625 7.686812499999999  12.3173125 7.52875  L 11.437 7.041625000000002  C 11.216105248167771 6.952354075001576  10.963292825369127 7.00273976765725  10.7935 7.169875000000002  C 10.684375000000001 7.283500000000003  10.393 7.516937500000003  10.192749999999998 7.516937500000003  C 9.989687499999999 7.516937500000003  9.696624999999997 7.278437500000003  9.587499999999997 7.164250000000003  C 9.419392045125056 6.995220110370598  9.166759008345787 6.942569792723077  8.945124999999999 7.030375000000003  L 8.928249999999998 7.037125000000003  L 8.0321875 7.529312500000003  L 8.011375 7.542250000000004  C 7.801900813621665 7.690284397406692  7.724312028660458 7.964540827632104  7.825187499999998 8.200375000000005  C 7.832499999999999 8.216687500000004  7.892125 8.362937500000005  7.892125 8.487250000000005  C 7.890884977522781 8.902655680465141  7.553782531244947 9.238751850783936  7.138375000000001 9.238750000000005  L 7.1029374999999995 9.238750000000005  C 6.890874999999999 9.238750000000005  6.722125 9.410312500000003  6.672062499999999 9.673562500000005  C 6.664187500000001 9.712937500000004  6.5978125 10.078000000000005  6.5978125 10.372187500000004  C 6.5978125 10.665250000000006  6.664187500000001 11.030312500000004  6.672062499999999 11.070812500000006  C 6.722125 11.333500000000004  6.890874999999999 11.503937500000005  7.1080000000000005 11.503937500000005  L 7.137812500000001 11.503937500000005  C 7.5529375000000005 11.503937500000005  7.891562500000001 11.841437500000005  7.891562500000001 12.256562500000005  C 7.891562500000001 12.364000000000004  7.843749999999999 12.498437500000005  7.825749999999998 12.541187500000005  C 7.722249999999999 12.771812500000006  7.801562500000001 13.055312500000007  8.029374999999998 13.213375000000006  L 8.893374999999999 13.694312500000006  C 9.116405709212781 13.786830583495433  9.373342752093572 13.73325552676964  9.5408125 13.559312500000006  C 9.647124999999999 13.444000000000008  9.94975 13.191437500000006  10.155625 13.191437500000006  C 10.364875 13.191437500000006  10.663 13.444000000000008  10.7755 13.566062500000006  C 10.879562499999999 13.680812500000007  11.0404375 13.750000000000007  11.204125000000001 13.750000000000007  C 11.287103051308147 13.749652181663196  11.368961193875425 13.730820965767435  11.44375 13.694875000000009  L 12.3173125 13.213937500000009  L 12.338125 13.19987500000001  C 12.547403068252331 13.052200983380908  12.624809269837066 12.778229942620397  12.523749999999998 12.542875000000011  C 12.48560383420162 12.451677878644194  12.463162139136731 12.354684111838324  12.457374999999999 12.256000000000009  C 12.457994548257386 11.840593586085728  12.794593586085721 11.503994548257397  13.209999999999999 11.503375000000009  L 13.2454375 11.503375000000009  C 13.457499999999998 11.503375000000009  13.6268125 11.332937500000007  13.6763125 11.070250000000009  C 13.675749999999999 11.066875000000008  13.75 10.680437500000007  13.75 10.371625000000009  Z " stroke-width="0" stroke-dasharray="0" stroke="rgba(255, 255, 255, 0)" fill="none" transform="matrix(1 0 0 1 44 357 )" class="stroke" mask="url(#Clip52)" />
    <path d="M 13.0643125 10.3710625  C 13.0643125 10.521250000000002  13.039562499999999 10.7125  13.020999999999999 10.8311875  C 12.305614825831523 10.924727560718086  11.770687485886452 11.534525468945299  11.771124999999998 12.256  C 11.771124999999998 12.4230625  11.811624999999998 12.58225  11.847624999999997 12.6908125  L 11.217062499999997 13.037875000000001  C 11.160812499999997 12.981625000000001  11.070249999999998 12.900625000000002  10.958312499999998 12.816812500000001  C 10.679312499999998 12.610375  10.409312499999999 12.504625  10.155624999999997 12.504625  C 9.904749999999996 12.504625  9.636999999999997 12.608125000000001  9.360249999999997 12.8100625  C 9.269736052406559 12.876949924909338  9.183678592623842 12.949666599441896  9.102624999999998 13.027750000000001  L 8.500187499999997 12.691375  C 8.536187499999997 12.582812500000001  8.577249999999998 12.421937500000002  8.577249999999998 12.255437500000003  C 8.577687514113546 11.5339629689453  8.042760174168471 10.924165060718085  7.327374999999996 10.830625000000001  C 7.30248147999061 10.678792474019538  7.2880101567139395 10.525434035139472  7.284062499999996 10.371625000000002  C 7.284062499999996 10.219187500000002  7.309374999999996 10.029062500000002  7.327374999999996 9.9115  C 8.042385969970267 9.817259426750931  8.576944228323299 9.207882258250379  8.577249999999998 8.4866875  C 8.577249999999998 8.319625  8.536749999999998 8.1604375  8.500749999999998 8.051875  L 9.151562499999997 7.6946875  C 9.2078125 7.748687499999999  9.298374999999997 7.8285625  9.409187499999996 7.907875000000001  C 9.682562499999998 8.103625  9.945812499999997 8.2009375  10.192749999999997 8.2009375  C 10.436312499999996 8.2009375  10.696749999999998 8.1041875  10.968437499999999 7.9129375  C 11.0786875 7.835874999999999  11.168124999999998 7.758250000000002  11.224937499999998 7.705375  L 11.848187499999998 8.0513125  C 11.799852831759944 8.191310878778294  11.773847325938727 8.338042674397279  11.771124999999998 8.486125  C 11.771124999999998 9.2123125  12.311687499999996 9.817562500000001  13.020999999999999 9.910937500000001  C 13.039562499999999 10.029625  13.0643125 10.220875  13.0643125 10.3710625  Z " stroke-width="0" stroke-dasharray="0" stroke="rgba(255, 255, 255, 0)" fill="none" transform="matrix(1 0 0 1 44 357 )" class="stroke" mask="url(#Clip52)" />
    <path d="M 6.651812499999998 12.776874999999997  L 1.13875 12.776875  L 1.13875 12.024249999999999  C 1.13875 9.4643125  3.11425 7.356062499999999  5.62975 7.1186875  L 5.6286249999999995 7.1175625  L 5.635375 7.1175625  C 5.789499999999999 7.1035  5.945875 7.095062500000001  6.103937500000001 7.095062500000001  L 6.1748125 7.09675  C 6.7311250000000005 7.054  7.572625 6.9229375000000015  8.013062499999998 6.530875  L 8.2290625 6.3626875  C 9.07 5.705687500000001  9.553187499999998 4.7258125  9.553187499999998 3.67225  C 9.552625 1.7850625000000002  8.0051875 0.25  6.102812499999999 0.25  C 4.201 0.25  2.6535624999999996 1.7850625000000002  2.6535624999999996 3.67225  C 2.6535624999999996 4.725812499999999  3.135624999999999 5.7056875  3.977687499999999 6.3626875  L 4.193124999999998 6.530875  L 3.939437499999998 6.631  C 1.6978749999999998 7.520312500000001  0.25 9.636999999999999  0.25 12.024249999999999  L 0.25 13.217312499999998  C 0.25 13.459187499999999  0.44912499999999994 13.656624999999998  0.694375 13.656624999999998  L 7.1889999999999965 13.656624999999996  C 6.976802453695447 13.384939045351846  6.796555661162497 13.089749533810972  6.651812499999998 12.776874999999997  Z " stroke-width="0" stroke-dasharray="0" stroke="rgba(255, 255, 255, 0)" fill="none" transform="matrix(1 0 0 1 44 357 )" class="stroke" mask="url(#Clip52)" />
    <path d="M 6.103375 6.214749999999999  C 4.6915 6.214749999999999  3.5428749999999996 5.073999999999999  3.5428749999999996 3.67225  C 3.5428749999999996 2.2710625  4.6915 1.1303124999999996  6.103375 1.1303124999999996  C 7.515812499999999 1.1303124999999996  8.6644375 2.2699374999999993  8.6644375 3.67225  C 8.6644375 5.0745625  7.515812500000001 6.214749999999999  6.103375 6.214749999999999  Z " stroke-width="0" stroke-dasharray="0" stroke="rgba(255, 255, 255, 0)" fill="none" transform="matrix(1 0 0 1 44 357 )" class="stroke" mask="url(#Clip52)" />
  </g>
</svg>