<?xml version="1.0" encoding="utf-8"?>
<svg version="1.1" xmlns:xlink="http://www.w3.org/1999/xlink" width="5px" height="10px" xmlns="http://www.w3.org/2000/svg">
  <defs>
    <pattern id="BGPattern" patternUnits="userSpaceOnUse" alignment="0 0" imageRepeat="None" />
    <mask fill="white" id="Clip427">
      <path d="M 4.5824 9.081  C 4.6675 9.2682  4.710000000000001 9.3618  4.7196 9.4367  C 4.750400000000001 9.6777  4.603400000000001 9.906  4.3712 9.9777  C 4.299099999999999 10  4.196300000000001 10  3.9907000000000004 10  L 0.6501000000000001 10  C 0.5106000000000002 10  0.4408999999999992 10  0.38339999999999996 9.9862  C 0.20059999999999967 9.9423  0.057800000000000296 9.7995  0.01389999999999958 9.6167  C 9.999999999976694E-05 9.5592  9.999999999976694E-05 9.4895  9.999999999976694E-05 9.35  L 9.999999999976694E-05 2.0008  C 9.999999999976694E-05 1.4703099999999996  9.999999999976694E-05 1.2050599999999996  0.04100000000000037 1.1102699999999999  C 0.17680000000000007 0.7953700000000001  0.5821000000000005 0.70757  0.8361000000000001 0.93804  C 0.9125999999999994 1.0074199999999998  1.0222999999999995 1.2488900000000003  1.2417999999999996 1.7318300000000004  L 4.5824 9.081  Z M 1.0000999999999998 3.6166099999999997  L 1.0000999999999998 9  L 3.4471000000000007 9  L 1.0000999999999998 3.6166099999999997  Z " fill-rule="evenodd" />
    </mask>
  </defs>
  <g transform="matrix(1 0 0 1 -734 -484 )">
    <path d="M 4.5824 9.081  C 4.6675 9.2682  4.710000000000001 9.3618  4.7196 9.4367  C 4.750400000000001 9.6777  4.603400000000001 9.906  4.3712 9.9777  C 4.299099999999999 10  4.196300000000001 10  3.9907000000000004 10  L 0.6501000000000001 10  C 0.5106000000000002 10  0.4408999999999992 10  0.38339999999999996 9.9862  C 0.20059999999999967 9.9423  0.057800000000000296 9.7995  0.01389999999999958 9.6167  C 9.999999999976694E-05 9.5592  9.999999999976694E-05 9.4895  9.999999999976694E-05 9.35  L 9.999999999976694E-05 2.0008  C 9.999999999976694E-05 1.4703099999999996  9.999999999976694E-05 1.2050599999999996  0.04100000000000037 1.1102699999999999  C 0.17680000000000007 0.7953700000000001  0.5821000000000005 0.70757  0.8361000000000001 0.93804  C 0.9125999999999994 1.0074199999999998  1.0222999999999995 1.2488900000000003  1.2417999999999996 1.7318300000000004  L 4.5824 9.081  Z M 1.0000999999999998 3.6166099999999997  L 1.0000999999999998 9  L 3.4471000000000007 9  L 1.0000999999999998 3.6166099999999997  Z " fill-rule="nonzero" fill="rgba(0, 0, 0, 0.8980392156862745)" stroke="none" transform="matrix(1 0 0 1 734 484 )" class="fill" />
    <path d="M 4.5824 9.081  C 4.6675 9.2682  4.710000000000001 9.3618  4.7196 9.4367  C 4.750400000000001 9.6777  4.603400000000001 9.906  4.3712 9.9777  C 4.299099999999999 10  4.196300000000001 10  3.9907000000000004 10  L 0.6501000000000001 10  C 0.5106000000000002 10  0.4408999999999992 10  0.38339999999999996 9.9862  C 0.20059999999999967 9.9423  0.057800000000000296 9.7995  0.01389999999999958 9.6167  C 9.999999999976694E-05 9.5592  9.999999999976694E-05 9.4895  9.999999999976694E-05 9.35  L 9.999999999976694E-05 2.0008  C 9.999999999976694E-05 1.4703099999999996  9.999999999976694E-05 1.2050599999999996  0.04100000000000037 1.1102699999999999  C 0.17680000000000007 0.7953700000000001  0.5821000000000005 0.70757  0.8361000000000001 0.93804  C 0.9125999999999994 1.0074199999999998  1.0222999999999995 1.2488900000000003  1.2417999999999996 1.7318300000000004  L 4.5824 9.081  Z " stroke-width="0" stroke-dasharray="0" stroke="rgba(255, 255, 255, 0)" fill="none" transform="matrix(1 0 0 1 734 484 )" class="stroke" mask="url(#Clip427)" />
    <path d="M 1.0000999999999998 3.6166099999999997  L 1.0000999999999998 9  L 3.4471000000000007 9  L 1.0000999999999998 3.6166099999999997  Z " stroke-width="0" stroke-dasharray="0" stroke="rgba(255, 255, 255, 0)" fill="none" transform="matrix(1 0 0 1 734 484 )" class="stroke" mask="url(#Clip427)" />
  </g>
</svg>