<?xml version="1.0" encoding="utf-8"?>
<svg version="1.1" xmlns:xlink="http://www.w3.org/1999/xlink" width="12px" height="10px" xmlns="http://www.w3.org/2000/svg">
  <defs>
    <pattern id="BGPattern" patternUnits="userSpaceOnUse" alignment="0 0" imageRepeat="None" />
    <mask fill="white" id="Clip390">
      <path d="M 12 1.5  L 0 1.5  L 0 0.5  L 12 0.5  L 12 1.5  Z M 12 5.5  L 0 5.5  L 0 4.5  L 12 4.5  L 12 5.5  Z M 0 9.5  L 12 9.5  L 12 8.5  L 0 8.5  L 0 9.5  Z " fill-rule="evenodd" />
    </mask>
  </defs>
  <g transform="matrix(1 0 0 1 -54 -603 )">
    <path d="M 12 1.5  L 0 1.5  L 0 0.5  L 12 0.5  L 12 1.5  Z M 12 5.5  L 0 5.5  L 0 4.5  L 12 4.5  L 12 5.5  Z M 0 9.5  L 12 9.5  L 12 8.5  L 0 8.5  L 0 9.5  Z " fill-rule="nonzero" fill="rgba(0, 0, 0, 0.8980392156862745)" stroke="none" transform="matrix(1 0 0 1 54 603 )" class="fill" />
    <path d="M 12 1.5  L 0 1.5  L 0 0.5  L 12 0.5  L 12 1.5  Z " stroke-width="0" stroke-dasharray="0" stroke="rgba(255, 255, 255, 0)" fill="none" transform="matrix(1 0 0 1 54 603 )" class="stroke" mask="url(#Clip390)" />
    <path d="M 12 5.5  L 0 5.5  L 0 4.5  L 12 4.5  L 12 5.5  Z " stroke-width="0" stroke-dasharray="0" stroke="rgba(255, 255, 255, 0)" fill="none" transform="matrix(1 0 0 1 54 603 )" class="stroke" mask="url(#Clip390)" />
    <path d="M 0 9.5  L 12 9.5  L 12 8.5  L 0 8.5  L 0 9.5  Z " stroke-width="0" stroke-dasharray="0" stroke="rgba(255, 255, 255, 0)" fill="none" transform="matrix(1 0 0 1 54 603 )" class="stroke" mask="url(#Clip390)" />
  </g>
</svg>